<svg xmlns="http://www.w3.org/2000/svg" version="1.0" viewBox="0 0 512 512">
  <path d="M436.5 9.2c-2.7.5-8.6 2.7-13.1 4.8-16.3 7.8-28 23.9-30.6 41.9l-1.2 8.1H8v320l120.3.2 120.2.3.7 6.5c1.8 16.7 8.2 35.7 16.7 49.9 24.8 41.2 69 65.1 116.1 62.7 33-1.6 60.6-13.9 84.1-37.5 23.6-23.5 35.9-51.1 37.5-84.1 1.9-36.9-12.4-72.4-39.5-98.3L456 276V119.3l5.5-1.2c12.9-2.9 27.6-13.6 34.2-24.8 13.3-22.7 10-50.3-8.2-68.6-13.2-13.4-32-19.1-51-15.5zm27.9 18.6c9.1 4.2 14.9 10 19.4 19 3.5 7.2 3.7 8.1 3.7 17.2s-.2 10-3.7 17.2c-4.5 9.1-10.3 14.7-19.6 19.1-6.1 2.9-7.6 3.2-16.2 3.2s-10.1-.3-16-3.1c-9.5-4.6-15.3-10.1-19.7-19.2-3.6-7.2-3.8-8.1-3.8-17.1 0-8.7.3-10.2 3.2-16.3 4-8.5 9.7-14.7 17.2-18.6 7.8-4.2 12.2-5.2 21.3-4.8 6.1.3 9.2 1.1 14.2 3.4zm-68.9 55.1c.3 1.6 2.2 5.5 4.1 8.7l3.5 5.8-24.3 24.3c-19.6 19.7-24.7 24.3-26.3 23.8-4.6-1.4-11.5-1.7-15-.5l-3.7 1.2-8.1-8c-7.9-7.9-8-8-6.8-11.2 4.9-14.2-7.5-31-22.9-31-6.3 0-11.4 2.3-16.5 7.5-7 6.9-9.2 15.3-6.4 23.5l1.2 3.2-19.9 19.9c-16 16-20.3 19.9-21.9 19.4-10-3-18-1.1-25 5.9-10.1 10.2-10.1 23 0 33.1 10.1 10.1 22.9 10.1 33.1 0 7-7 8.9-15 5.9-25-.5-1.6 3.4-5.9 19.4-21.9l19.9-19.9 3.2 1.2c4.2 1.4 9.8 1.4 14 0 3.2-1.2 3.3-1.1 11.2 6.9 8 7.9 8.1 8 6.9 11.2-4.9 14.2 7.5 31 22.9 31 6.3 0 11.4-2.3 16.6-7.5 7-7 8.9-15 5.9-25-.5-1.6 4.2-6.7 23.8-26.3l24.3-24.3 5.8 3.5c3.2 1.9 8.9 4.3 12.7 5.3l6.9 1.7v72.9c0 40.1-.3 72.7-.7 72.5-17.2-8.8-29.4-12.9-45.3-15.3-37.9-5.8-77 6.7-105.5 33.7l-8.5 8V256h-48v96h18.1l-.7 6.7c-.3 3.8-.7 7.4-1 8-.3 1-23.6 1.3-112.4 1.3H24V80h370.8l.7 2.9zm-94 31.6c1.6 1.5 2.5 3.6 2.5 5.5s-.9 4-2.5 5.5c-1.5 1.6-3.6 2.5-5.5 2.5s-4-.9-5.5-2.5c-1.6-1.5-2.5-3.6-2.5-5.5s.9-4 2.5-5.5c1.5-1.6 3.6-2.5 5.5-2.5s4 .9 5.5 2.5zm48 48c1.6 1.5 2.5 3.6 2.5 5.5s-.9 4-2.5 5.5c-1.5 1.6-3.6 2.5-5.5 2.5s-4-.9-5.5-2.5c-1.6-1.5-2.5-3.6-2.5-5.5s.9-4 2.5-5.5c1.5-1.6 3.6-2.5 5.5-2.5s4 .9 5.5 2.5zm-120 24c5 4.9 1.5 13.5-5.5 13.5-4.1 0-8-3.9-8-8s3.9-8 8-8c1.9 0 4 .9 5.5 2.5zm138.1 109.1c-.2.6-2.7 1.4-5.6 1.8-8 1.1-21.3 6.3-29.4 11.6-30.8 20.1-44.3 59.2-32 93 1.3 3.6 2 6.8 1.6 7.2-.4.3-6.5 4-13.7 8.1l-13 7.5-2.3-5c-12.7-28-12-63.2 1.8-91.7 16.3-33.6 48-57.3 83.8-62.5l8.7-1.2.3 15c.1 8.3.1 15.5-.2 16.2zm38.9-27c52.9 14.7 88 67.8 80.4 122-1.2 9-4.8 22-8.1 29.2l-2.3 5-13.2-7.6c-7.2-4.3-13.4-8-13.7-8.3-.3-.3.4-3 1.5-6 9.9-25.8 4.3-56.7-14.1-78.4-12.1-14.2-28.1-23.5-46-26.9l-6.5-1.2-.3-16-.2-16.1 6.7.9c3.8.5 10.9 2 15.8 3.4zM264 292.9v20.8l-3.9 8.4c-2.2 4.6-4.3 9.6-4.6 11.1-.6 2.4-1.2 2.8-4.1 2.8H248v-64h16v20.9zm125.5 20.6c21.6 4.5 40.9 22.3 47.8 44 1.8 5.7 2.2 9.3 2.2 19-.1 10.4-.5 13-2.7 19.3-3.7 10.4-8.3 17.6-15.8 25.2-7.6 7.6-16.7 13.2-26.5 16.3-5.7 1.8-9.3 2.2-19 2.2-10.4-.1-13-.5-19.3-2.7-10.5-3.8-17.6-8.3-25.7-16.3-19.3-19.2-23.9-48.4-11.5-73.1 13.2-26.1 41.8-39.9 70.5-33.9zm-71.4 117c19.2 20.2 45.9 29.1 72.1 24.1 17.3-3.3 31.6-11.3 44.1-24.5l6.8-7.2 13.4 7.7c7.4 4.2 13.5 7.9 13.5 8.3 0 3.1-14.3 18.5-23.9 25.6-14.1 10.7-30.1 18-47.6 21.7-7.7 1.6-33.3 1.6-41 0-23.1-4.9-43.4-15.9-59.3-32-7.6-7.6-12.9-14.8-11.9-15.9.6-.5 25.9-15.2 26.5-15.3.1 0 3.4 3.4 7.3 7.5z"/>
  <path d="M40 104v8h16V96H40v8zm32 0v8h112V96H72v8zm-32 32v8h16v-16H40v8zm32 0v8h112v-16H72v8zm-32 32v8h16v-16H40v8zm32 0v8h112v-16H72v8zm-32 32v8h16v-16H40v8zm32 0v8h112v-16H72v8zm96 88v64h48V224h-48v64zm32 0v48h-16v-96h16v48zM40 312v40h48v-80H40v40zm32 0v24H56v-48h16v24zm32 8v32h48v-64h-48v32zm32 0v16h-16v-32h16v16zm228.1 9.6c-25.3 6.8-41 33.1-34.6 57.9 6.7 25.6 32.9 41.5 58 35 25.6-6.7 41.5-32.9 35-57.8-6.7-25.9-33.3-41.9-58.4-35.1zm27 18.5c6.7 3.6 9.8 6.8 13.7 14.3 2.2 4.3 2.6 6.4 2.6 13.6.1 7.8-.2 9-3.3 14.8-3.8 7-7 10-14.5 14-4.3 2.2-6.4 2.6-13.6 2.6-7.2 0-9.3-.4-13.6-2.6-7.5-4-10.7-7-14.5-14-3.1-5.8-3.4-7-3.3-14.8 0-10 2.4-16 8.9-22.5 10-10 24.9-12.1 37.6-5.4z"/>
</svg>
